<?xml version="1.0" encoding="utf-8"?>
<!-- Generator: Adobe Illustrator 24.3.0, SVG Export Plug-In . SVG Version: 6.00 Build 0)  -->
<svg version="1.1" id="LXY" xmlns="http://www.w3.org/2000/svg" xmlns:xlink="http://www.w3.org/1999/xlink" x="0px" y="0px"
	 viewBox="0 0 1080 1080" style="enable-background:new 0 0 1080 1080;" xml:space="preserve">
<path d="M163.8,7c9.1,0,18.3,0,27.4,0c1.5,0.3,2.9,0.9,4.4,1c30.6,3.1,58.8,13.2,82.9,32.2C295.9,53.9,312,69.4,328,84.7
	c37.2,35.4,73.6,71.7,111.1,106.8c18.8,17.6,39.6,32.7,63.3,43.3c25.7,11.6,51.8,12.5,76.9-0.1c16.8-8.4,33.2-18.4,47.9-30
	C680,163.3,726.5,115,772.8,66.9c41.5-43.1,90.3-63.9,150-57.5c81.5,8.8,146.4,80.1,149,162.2c1.6,52.8-18.6,97-54.5,133.2
	C828.4,495.1,638.9,684.6,449,873.8c-52.1,52-102.2,106-157.6,154.8c-69,60.6-174.4,57.6-238-11.1C-4.7,954.8-7.5,859.8,47,794
	c11.1-13.3,23.7-25.4,35.7-38c33.2-34.8,66.8-69.3,99.5-104.6c20.1-21.7,38.6-45,51.1-72.2c12-26.1,12.5-52.3,0-78.1
	c-5.6-11.5-12-22.7-19.4-33.2c-22.3-31.6-49.3-59.2-76.2-86.8c-28.3-28.9-56.8-57.6-84.7-86.9C28.9,268.9,14.4,238.6,9.1,204
	c-0.6-3.8-1.4-7.6-2.1-11.5c0-9.6,0-19.2,0-28.7c0.4-2.1,1-4.2,1.2-6.3C16.8,82.4,75.7,21,150.4,9.3C154.9,8.6,159.3,7.8,163.8,7z"
	/>
<path d="M902,1071.8c-93.8,0-170-76.2-169.8-170.1c0.2-93.3,76.3-169.5,169.2-169.5c94.5,0,170.5,75.9,170.4,170.2
	C1071.6,996,995.7,1071.8,902,1071.8z"/>
</svg>
