<svg xmlns="http://www.w3.org/2000/svg" viewBox="0 0 453 453"><defs><style>.cls-1{fill:#fefefe;}.cls-2{fill:#d6d6d6;}.cls-3{fill:#d9d9d9;}</style></defs><title>资源 1</title><g id="图层_2" data-name="图层 2"><g id="XY"><g id="X"><path d="M79,453H65.62A61.86,61.86,0,0,1,46,448.67a75.46,75.46,0,0,1-21.8-13.5C12.53,424.87,5.32,412,1.55,397c-.93-3.7-.95-7.49-1.22-11.26v-9.83A64.83,64.83,0,0,1,18.48,332.3Q36.63,313,55.23,294.1a356.46,356.46,0,0,0,27.78-31C88,256.67,92.64,250,96,242.46c5.69-12.93,4.12-25.3-2.79-37.24C87.8,196,81.07,187.74,74,179.72c-12.9-14.7-27.32-27.92-40.86-42-6.27-6.53-12.75-12.91-18.37-20A71.25,71.25,0,0,1,.88,87.44C.42,85.19.7,82.85,0,80.63V66.73c.56-4.45.53-9,1.87-13.33Q14.92,11,58,.84C60.3.3,62.74.63,65.06.05H78.4C83.7.57,89,.83,94.17,2.53a76.69,76.69,0,0,1,27.94,16c15.58,14.1,30,29.36,45.12,44C177.93,72.86,188.86,83,201.47,91.1A57.56,57.56,0,0,0,219.11,99a36.34,36.34,0,0,0,21.27-1.45C250,94.08,258.16,88.07,266,81.73c8.93-7.21,17.17-15.19,25.51-23.07,13.19-12.46,25.75-25.55,38.67-38.28A70.58,70.58,0,0,1,368.94.8a51,51,0,0,1,6.9-.47h9.84c16.72.49,31,7,43.38,17.89a71,71,0,0,1,22.77,38.14c.72,3.06.46,6.21,1.12,9.26V80.07a65,65,0,0,1-3.78,17.77A91.1,91.1,0,0,1,435,121.57c-6.31,7.93-13.77,14.71-20.88,21.83Q302.66,255,191.16,366.59c-21.08,21.2-41.83,42.74-63.38,63.44-11.22,10.78-24.46,19.18-40.35,22.09C84.62,452.63,81.75,452.37,79,453Z" transform="translate(0 0)"/><path class="cls-1" d="M79,453c1-.92,2.25-.46,3.38-.61,14.82-2.09,27.63-8.32,38.94-18.1,24.21-20.95,45.77-44.59,68.4-67.14Q309.52,247.69,428.81,127.74C441.59,114.9,450.67,99.63,452.45,81c0-.38.1-.72.5-.88V374c-1.59-.27-1.21-1.64-1.34-2.6a69.39,69.39,0,0,0-15.94-36.38c-12.46-14.69-28.26-23.31-47.52-25.33-20-2.1-37.81,3.44-53.17,16.24a68.81,68.81,0,0,0-25.26,47.53c-2,19.56,3.26,37.09,15.61,52.29,12,14.79,27.69,23.4,46.66,25.87,1,.13,2.32-.31,2.61,1.29Z" transform="translate(0 0)"/><path d="M374.6,453c-5.77-1.17-11.61-1.93-17.24-3.86a72.22,72.22,0,0,1-7.19-133.8c44.89-20.89,96.77,8.31,102.3,57.58,0,.43-.07.94.48,1.17v14.45A64,64,0,0,1,447,411.11a73.09,73.09,0,0,1-28.59,32A70,70,0,0,1,398,451.62c-3.7.9-7.49.72-11.21,1.33Z" transform="translate(0 0)"/><path class="cls-1" d="M375.15.59a76.29,76.29,0,0,0-27.81,8.06c-7.79,4.1-14.39,9.64-20.54,15.91-18.14,18.5-36.27,37-55.91,54-8.19,7.08-16.76,13.66-26.71,18.22-11.58,5.31-23.05,5.11-34.52-.35-9.7-4.62-18.06-11.16-26.14-18.11-16.52-14.2-31.36-30.14-47-45.24-7.05-6.78-13.73-14-21.82-19.69A71.57,71.57,0,0,0,80.25.49,13.78,13.78,0,0,1,78.4.05H375.15q.28.18.18.36T375.15.59Z" transform="translate(0 0)"/><path class="cls-1" d="M0,80.63c1.05,1,.73,2.39.92,3.59a72.85,72.85,0,0,0,16.78,36c5,5.94,10.56,11.38,16,16.9,15.15,15.35,30.76,30.27,44.78,46.7a132.8,132.8,0,0,1,16,22.56c7.53,13.83,7.3,27.51-.31,41.22-5.43,9.77-12.41,18.38-19.77,26.71C60.94,289.67,46.28,304,32.21,318.82c-4.64,4.89-9.66,9.42-14,14.56A71,71,0,0,0,1,372.69c-.08.82-.26,1.64-.4,2.46-.17.26-.35.25-.54,0Z" transform="translate(0 0)"/><path class="cls-1" d="M453,65.62c-1-1.13-.63-2.6-.84-3.9A72,72,0,0,0,388.74,1c-.83-.09-1.65-.26-2.47-.4-.18-.11-.25-.23-.19-.35s.13-.18.19-.18c21.58,0,43.16,0,64.74,0,1.66,0,2,.33,2,2C452.93,23.2,453,44.41,453,65.62Z" transform="translate(0 0)"/><path class="cls-1" d="M.58,386.27a75.83,75.83,0,0,0,11.77,34.22c2.77,4.25,5.71,8.63,9.31,11.85,11.93,10.67,25.64,18.25,42,20.05.67.08,1.51-.25,2,.56-21.17,0-42.33,0-63.5.05C.39,453,0,452.6,0,450.87c.07-21.53,0-43.07,0-64.6C.23,386,.4,386,.58,386.27Z" transform="translate(0 0)"/><path class="cls-1" d="M65.06.05c-.93,1-2.22.66-3.33.84C28.63,6.25,4.19,31.88.48,65.18A9.71,9.71,0,0,1,0,66.73C0,45.2.07,23.66,0,2.13,0,.4.39,0,2.12,0,23.1.07,44.08.05,65.06.05Z" transform="translate(0 0)"/><path class="cls-1" d="M386.82,453c5.23-1.08,10.59-1.54,15.67-3.34,27.57-9.78,44.24-28.92,49.59-57.79.21-1.11-.08-2.4.87-3.33,0,20.84,0,41.68.05,62.52,0,1.66-.33,2-2,2C429.61,452.93,408.22,453,386.82,453Z" transform="translate(0 0)"/><path class="cls-2" d="M386.27.05V.58H375.15V.05Z" transform="translate(0 0)"/><path class="cls-3" d="M.58,386.27H0V375.15H.58Z" transform="translate(0 0)"/></g></g></g></svg>